# xmcd
#
# Track frame offsets:
#	150
#	47057
#	77448
#	104264
#	148011
#	172376
#	193370
#
# Disc length: 2966 seconds
#
# Revision: 1
# Processed by: cddbd v1.5.2PL0 Copyright (c) Steve Scherf et al.
# Submitted via: audiograbber 1.83.01
#
DISCID=630b9407
DTITLE=Grateful Dead - 86-12-31 Henry J Kaiser Convention Centre, Oakland CA
DYEAR=1900
DGENRE=
TTITLE0=Wharf Rat
TTITLE1=GDTRFB
TTITLE2=Turn On Your Lovelight
TTITLE3=Gimme Some Lovin > When Push Comes To Shove
TTITLE4=Box Of Rain
TTITLE5=In The Midnight Hour
TTITLE6=Brokedown Palace
EXTD=
EXTT0=
EXTT1=
EXTT2=
EXTT3=
EXTT4=
EXTT5=
EXTT6=
PLAYORDER=
